<?xml version="1.0" standalone="no"?><!DOCTYPE svg PUBLIC "-//W3C//DTD SVG 1.1//EN" "http://www.w3.org/Graphics/SVG/1.1/DTD/svg11.dtd"><svg t="1745916138897" class="icon" viewBox="0 0 1024 1024" version="1.1" xmlns="http://www.w3.org/2000/svg" p-id="7724" xmlns:xlink="http://www.w3.org/1999/xlink" width="200" height="200"><path d="M540.835 0.00256v85.298987a80.946998 80.946998 0 0 1 40.191899 10.598373 79.769401 79.769401 0 0 1 37.734306 48.588679 77.823805 77.823805 0 0 1-7.93598 60.620648l-378.111055 643.889591a262.501744 262.501744 0 0 1-110.694123 59.289451c-7.731181 2.918393-15.359962 5.580786-22.783943 8.08958q-2.303994-11.417571-4.249589-23.398341a252.978568 252.978568 0 0 1-3.071993-123.903691l378.213455-643.88959a81.919795 81.919795 0 0 1 71.167822-39.782301V0.00256m0 0a168.959578 168.959578 0 0 0-146.073235 82.482994l-378.776653 644.09439c-46.233484 78.796603 19.507151 297.420056 19.507151 297.420056s225.535436-53.299067 271.717721-132.09567l378.367054-644.09439a164.249189 164.249189 0 0 0-61.439846-225.791435 168.959578 168.959578 0 0 0-83.762991-22.015945z" fill="#515151" p-id="7725"></path><path d="M665.609088 640.00096m38.399904 0l281.599296 0q38.399904 0 38.399904 38.399904l0 0q0 38.399904-38.399904 38.399904l-281.599296 0q-38.399904 0-38.399904-38.399904l0 0q0-38.399904 38.399904-38.399904Z" fill="#515151" p-id="7726"></path><path d="M563.209344 793.600576m38.399904 0l383.99904 0q38.399904 0 38.399904 38.399904l0 0q0 38.399904-38.399904 38.399904l-383.99904 0q-38.399904 0-38.399904-38.399904l0 0q0-38.399904 38.399904-38.399904Z" fill="#515151" p-id="7727"></path><path d="M358.409856 947.200192m38.399904 0l588.798528 0q38.399904 0 38.399904 38.399904l0 0q0 38.399904-38.399904 38.399904l-588.798528 0q-38.399904 0-38.399904-38.399904l0 0q0-38.399904 38.399904-38.399904Z" fill="#515151" p-id="7728"></path></svg>